<?xml version="1.0" encoding="UTF-8"?>
<svg version="1.1" xmlns="http://www.w3.org/2000/svg" width="180" height="180">
<path d="M0 0 C59.4 0 118.8 0 180 0 C180 59.4 180 118.8 180 180 C120.6 180 61.2 180 0 180 C0 120.6 0 61.2 0 0 Z " fill="#81A441" transform="translate(0,0)"/>
<path d="M0 0 C59.4 0 118.8 0 180 0 C180.165 18.830625 180.33 37.66125 180.5 57.0625 C180.57283203 63.00258057 180.64566406 68.94266113 180.72070312 75.06274414 C180.75683594 82.33093262 180.75683594 82.33093262 180.7635498 85.73631287 C180.77581393 88.10862741 180.80390926 90.48089284 180.84460449 92.85289001 C180.90325798 96.45236452 180.91124613 100.04880015 180.90820312 103.64868164 C180.93698799 104.70085656 180.96577286 105.75303148 180.99542999 106.83709049 C180.91612069 113.85578904 180.91612069 113.85578904 178.32218933 117.09554195 C176.2923356 118.87451257 174.20246529 120.44259574 172 122 C170.42435635 123.50041072 168.86421012 125.01746423 167.328125 126.55834961 C166.50787842 127.37867172 165.68763184 128.19899384 164.8425293 129.04417419 C163.98699463 129.90487015 163.13145996 130.7655661 162.25 131.65234375 C161.35128174 132.55247696 160.45256348 133.45261017 159.52661133 134.38002014 C157.16413425 136.74711263 154.80384888 139.11634639 152.44464111 141.48669434 C150.02614819 143.91550742 147.60474054 146.34141103 145.18359375 148.76757812 C140.45307046 153.50907369 135.72542027 158.25341898 131 163 C126.8230787 159.48759425 122.79094884 155.9137655 118.94140625 152.0390625 C118.06162109 151.15605469 117.18183594 150.27304688 116.27539062 149.36328125 C114.93250977 148.00783203 114.93250977 148.00783203 113.5625 146.625 C112.64017578 145.69816406 111.71785156 144.77132812 110.76757812 143.81640625 C108.50941375 141.54654154 106.25363058 139.27436462 104 137 C105.73775232 133.21218043 108.05335536 130.94664464 111 128 C113.86256598 123.82280094 113.86256598 123.82280094 115 119 C114.505 118.175 114.01 117.35 113.5 116.5 C112 114 112 114 112.21484375 112.046875 C113.12760224 109.6673454 114.21045618 108.48382825 116.0625 106.75 C116.88427734 105.96882813 116.88427734 105.96882813 117.72265625 105.171875 C118.14417969 104.78515625 118.56570312 104.3984375 119 104 C120.3303125 104.4640625 120.3303125 104.4640625 121.6875 104.9375 C122.780625 105.288125 123.87375 105.63875 125 106 C126.2375 106.4640625 126.2375 106.4640625 127.5 106.9375 C130.32498238 107.25825469 130.32498238 107.25825469 133.25 104.6875 C135.97993419 102.31272376 135.97993419 102.31272376 137 100 C137.66 100 138.32 100 139 100 C139.22171875 99.45214844 139.4434375 98.90429688 139.671875 98.33984375 C141.41064879 95.27653346 143.74837548 92.99831422 146.25 90.5625 C146.74290527 90.07458984 147.23581055 89.58667969 147.74365234 89.08398438 C150.27843832 86.59677259 152.84874995 84.2142287 155.625 82 C158.23949912 80.15144408 158.23949912 80.15144408 159 77 C159.9075 76.401875 160.815 75.80375 161.75 75.1875 C165.79028931 72.4680745 168.79050307 69.41899385 171 65 C171.12207871 63.21140489 171.17548448 61.41771619 171.1875 59.625 C171.20167969 58.66851562 171.21585938 57.71203125 171.23046875 56.7265625 C170.99343946 53.92238549 170.55798992 52.32645792 169 50 C164.62614981 47.96565108 160.7754153 47.4334253 156 48 C153.62969451 49.20759109 151.42471812 50.5293845 149.2109375 52.00390625 C146.4137879 53.26410616 144.8907701 52.84694492 142 52 C141.67 50.35 141.34 48.7 141 47 C142.07218201 45.98805294 143.15826378 44.99081943 144.25 44 C144.85328125 43.443125 145.4565625 42.88625 146.078125 42.3125 C148 41 148 41 152 41 C151.67 38.69 151.34 36.38 151 34 C143.84115874 36.38265831 138.93848047 39.18953889 133.71435547 44.60449219 C133.05940598 45.25856552 132.40445648 45.91263885 131.72966003 46.58653259 C129.59427773 48.72605479 127.48087926 50.88594049 125.3671875 53.046875 C123.88064235 54.54462493 122.39275632 56.04104509 120.90359497 57.53619385 C117.00716639 61.45541894 113.12910261 65.39232894 109.25469971 69.33331299 C105.29019499 73.35943739 101.30843171 77.3684142 97.328125 81.37890625 C89.53518206 89.23599993 81.76154963 97.1119018 74 105 C70.14691234 103.42476254 67.55256086 100.82252556 64.68066406 97.90771484 C64.16314072 97.39048355 63.64561737 96.87325226 63.1124115 96.34034729 C61.40869711 94.63524329 59.71217022 92.92317232 58.015625 91.2109375 C56.83350593 90.025087 55.65094355 88.83967826 54.46795654 87.6546936 C51.35971272 84.53882362 48.25752263 81.41699366 45.15655518 78.29388428 C41.98951498 75.10636381 38.81678613 71.9245168 35.64453125 68.7421875 C29.42410597 62.50033024 23.21006463 56.25216515 17 50 C18.28022875 47.19030533 19.60714129 45.1460762 21.79736328 42.97558594 C22.35779327 42.41530701 22.91822327 41.85502808 23.49563599 41.277771 C24.09777924 40.68595032 24.69992249 40.09412964 25.3203125 39.484375 C25.93897186 38.86854553 26.55763123 38.25271606 27.19503784 37.6182251 C29.16703814 35.65739664 31.14588737 33.70364699 33.125 31.75 C34.46530164 30.41973201 35.80515083 29.089008 37.14453125 27.7578125 C40.42446589 24.4998985 43.71055942 21.24831467 47 18 C42.96185894 21.09471118 39.39533904 24.47305524 35.82421875 28.078125 C35.25419632 28.64956238 34.68417389 29.22099976 34.09687805 29.80975342 C32.291374 31.62081849 30.48939392 33.43534377 28.6875 35.25 C27.45791412 36.48460592 26.22809873 37.71898333 24.99804688 38.953125 C21.99603639 41.96611274 18.99717963 44.98220703 16 48 C10.28011804 43.25371497 5.31234051 38.31234051 0 33 C0 22.11 0 11.22 0 0 Z " fill="#749D3F" transform="translate(0,0)"/>
<path d="M0 0 C39.93 0 79.86 0 121 0 C114.2486153 7.87661549 114.2486153 7.87661549 111.68588257 10.46801758 C110.8113166 11.35548424 110.8113166 11.35548424 109.91908264 12.26087952 C108.99306496 13.19328712 108.99306496 13.19328712 108.04833984 14.14453125 C107.04716881 15.15796852 107.04716881 15.15796852 106.02577209 16.19187927 C103.84049595 18.40175055 101.65128503 20.60765571 99.4609375 22.8125 C98.71018574 23.56857544 97.95943398 24.32465088 97.18593216 25.1036377 C93.22287214 29.09329693 89.25623494 33.0793639 85.28710938 37.06298828 C82.00175434 40.3617566 78.72384841 43.66766954 75.45214844 46.97998047 C71.4945772 50.98666056 67.52506657 54.9811224 63.54643631 58.96688843 C62.03267673 60.48738285 60.52319278 62.01214612 59.01804733 63.54116821 C56.9211368 65.66947301 54.8092448 67.78169885 52.69287109 69.890625 C52.07147751 70.52842392 51.45008392 71.16622284 50.80986023 71.823349 C49.06015015 73.54785156 49.06015015 73.54785156 46 76 C41.52992776 75.56568014 39.12083567 72.50149962 36.140625 69.43359375 C35.59138367 68.88010757 35.04214233 68.3266214 34.47625732 67.75636292 C32.72699536 65.99033441 30.98846356 64.21415308 29.25 62.4375 C28.064495 61.23694559 26.87830476 60.0370674 25.69140625 58.83789062 C22.78626707 55.89970905 19.89070663 52.95237926 17 50 C18.28022875 47.19030533 19.60714129 45.1460762 21.79736328 42.97558594 C22.35779327 42.41530701 22.91822327 41.85502808 23.49563599 41.277771 C24.09777924 40.68595032 24.69992249 40.09412964 25.3203125 39.484375 C25.93897186 38.86854553 26.55763123 38.25271606 27.19503784 37.6182251 C29.16703814 35.65739664 31.14588737 33.70364699 33.125 31.75 C34.46530164 30.41973201 35.80515083 29.089008 37.14453125 27.7578125 C40.42446589 24.4998985 43.71055942 21.24831467 47 18 C42.96185894 21.09471118 39.39533904 24.47305524 35.82421875 28.078125 C35.25419632 28.64956238 34.68417389 29.22099976 34.09687805 29.80975342 C32.291374 31.62081849 30.48939392 33.43534377 28.6875 35.25 C27.45791412 36.48460592 26.22809873 37.71898333 24.99804688 38.953125 C21.99603639 41.96611274 18.99717963 44.98220703 16 48 C10.28011804 43.25371497 5.31234051 38.31234051 0 33 C0 22.11 0 11.22 0 0 Z " fill="#5E8432" transform="translate(0,0)"/>
<path d="M0 0 C0.33 0 0.66 0 1 0 C1.20319089 7.84663545 1.3430854 15.69259054 1.43945312 23.54125977 C1.47511737 26.21080943 1.53415535 28.87691707 1.60351562 31.54614258 C1.70079852 35.38667113 1.7459848 39.22486856 1.78125 43.06640625 C1.82254028 44.25520889 1.86383057 45.44401154 1.90637207 46.6688385 C1.91073916 54.76799943 1.91073916 54.76799943 -0.49145508 58.01756287 C-2.57476953 59.82230026 -4.76522543 61.38761148 -7 63 C-8.58484442 64.4906889 -10.14094717 66.01234016 -11.671875 67.55834961 C-12.49212158 68.37867172 -13.31236816 69.19899384 -14.1574707 70.04417419 C-15.01300537 70.90487015 -15.86854004 71.7655661 -16.75 72.65234375 C-18.09807739 74.00254356 -18.09807739 74.00254356 -19.47338867 75.38002014 C-21.83586575 77.74711263 -24.19615112 80.11634639 -26.55535889 82.48669434 C-28.97385181 84.91550742 -31.39525946 87.34141103 -33.81640625 89.76757812 C-38.54692954 94.50907369 -43.27457973 99.25341898 -48 104 C-52.1769213 100.48759425 -56.20905116 96.9137655 -60.05859375 93.0390625 C-60.93837891 92.15605469 -61.81816406 91.27304688 -62.72460938 90.36328125 C-63.61986328 89.45964844 -64.51511719 88.55601562 -65.4375 87.625 C-66.35982422 86.69816406 -67.28214844 85.77132812 -68.23242188 84.81640625 C-70.49058625 82.54654154 -72.74636942 80.27436462 -75 78 C-73.26224768 74.21218043 -70.94664464 71.94664464 -68 69 C-65.13743402 64.82280094 -65.13743402 64.82280094 -64 60 C-64.495 59.175 -64.99 58.35 -65.5 57.5 C-67 55 -67 55 -66.78515625 53.046875 C-65.87239776 50.6673454 -64.78954382 49.48382825 -62.9375 47.75 C-62.11572266 46.96882813 -62.11572266 46.96882813 -61.27734375 46.171875 C-60.85582031 45.78515625 -60.43429688 45.3984375 -60 45 C-59.113125 45.309375 -58.22625 45.61875 -57.3125 45.9375 C-55.6728125 46.4634375 -55.6728125 46.4634375 -54 47 C-53.175 47.309375 -52.35 47.61875 -51.5 47.9375 C-48.67501762 48.25825469 -48.67501762 48.25825469 -45.75 45.6875 C-43.02006581 43.31272376 -43.02006581 43.31272376 -42 41 C-41.34 41 -40.68 41 -40 41 C-39.66742188 40.17822266 -39.66742188 40.17822266 -39.328125 39.33984375 C-37.58935121 36.27653346 -35.25162452 33.99831422 -32.75 31.5625 C-32.25709473 31.07458984 -31.76418945 30.58667969 -31.25634766 30.08398438 C-28.72156168 27.59677259 -26.15125005 25.2142287 -23.375 23 C-20.76050088 21.15144408 -20.76050088 21.15144408 -20 18 C-19.0925 17.401875 -18.185 16.80375 -17.25 16.1875 C-14.32982914 14.22200038 -12.57176979 12.40035541 -10.4296875 9.65625 C-7.6317538 6.4149279 -4.25822893 3.76340444 -1 1 C-0.67 0.67 -0.34 0.34 0 0 Z " fill="#5E8432" transform="translate(179,59)"/>
<path d="M0 0 C0.495 3.465 0.495 3.465 1 7 C-0.093125 7.433125 -1.18625 7.86625 -2.3125 8.3125 C-6.21725148 9.9411576 -6.21725148 9.9411576 -9 13 C-8.76956136 15.65466049 -8.76956136 15.65466049 -8 18 C-4.29466358 17.63850376 -1.66356716 16.9230249 1.4375 14.9375 C5.06819022 12.74629048 7.72940826 12.45647014 12 13 C16.21258238 14.62022399 18.65613836 16.14985264 21 20 C21.85394393 25.09289081 21.64391123 29.6349082 19.4375 34.3125 C16.54224856 37.50470031 13.55040897 40.53395239 10 43 C9.34 43 8.68 43 8 43 C7.90178955 43.59240479 7.8035791 44.18480957 7.70239258 44.79516602 C6.85898215 47.44265979 5.82219313 48.43738651 3.76171875 50.27734375 C2.77848633 51.17163086 2.77848633 51.17163086 1.77539062 52.08398438 C1.08638672 52.69564453 0.39738281 53.30730469 -0.3125 53.9375 C-4.5878235 57.77349435 -8.40729581 61.50271946 -12 66 C-12.66 66 -13.32 66 -14 66 C-14.495 67.485 -14.495 67.485 -15 69 C-17.75 71.75 -17.75 71.75 -21 74 C-23.5 73.9375 -23.5 73.9375 -26 73 C-27.093125 72.649375 -28.18625 72.29875 -29.3125 71.9375 C-30.6428125 71.4734375 -30.6428125 71.4734375 -32 71 C-34.19983981 72.85551706 -36.23892611 74.71652804 -38 77 C-38 80.62333737 -37.03003935 81.95494097 -35 85 C-35.0625 86.9375 -35.0625 86.9375 -36 89 C-37.64069823 90.36516112 -39.30592852 91.70166362 -41 93 C-43.88047754 87.57580221 -46.74405132 82.14320771 -49.58789062 76.69970703 C-50.51313217 74.93080643 -51.44140889 73.16348934 -52.37304688 71.39794922 C-53.65686098 68.9589852 -54.92415526 66.51211606 -56.1875 64.0625 C-56.58573975 63.31242676 -56.98397949 62.56235352 -57.39428711 61.78955078 C-60.03688296 56.60889872 -60.03688296 56.60889872 -59.88397217 54.08450317 C-58.61306305 51.0875603 -56.67175352 49.2898614 -54.37597656 46.98779297 C-53.89618347 46.50274292 -53.41639038 46.01769287 -52.92205811 45.51794434 C-51.33570605 43.91840115 -49.73864498 42.33006775 -48.140625 40.7421875 C-47.03258061 39.63212179 -45.92498184 38.5216111 -44.81781006 37.41067505 C-42.49569405 35.0841366 -40.16824007 32.76310911 -37.83691406 30.44580078 C-34.85302242 27.47898085 -31.8827744 24.49892384 -28.91641617 21.51458549 C-26.63127033 19.21858274 -24.33900667 16.92979364 -22.04454803 14.64310074 C-20.94675351 13.54730397 -19.85117352 12.4492839 -18.75788116 11.34899521 C-17.22627679 9.80974737 -15.68533888 8.28048453 -14.14160156 6.75341797 C-13.2674762 5.88167938 -12.39335083 5.0099408 -11.49273682 4.11178589 C-7.62683903 0.83669149 -5.05833701 0 0 0 Z " fill="#7CA347" transform="translate(151,34)"/>
<path d="M0 0 C4.00755884 1.59085436 6.59120618 4.41784219 9.5 7.48046875 C10.56207186 8.57268211 11.62458512 9.6644664 12.6875 10.75585938 C14.35172098 12.47603091 16.01173269 14.19979557 17.6640625 15.93139648 C19.26502175 17.60467395 20.8810835 19.26208544 22.5 20.91796875 C22.99177734 21.44182663 23.48355469 21.96568451 23.99023438 22.50541687 C25.53022527 24.12619462 25.53022527 24.12619462 28 26 C30.26329332 26.11970608 30.26329332 26.11970608 32 25 C33.28436734 23.0162233 33.28436734 23.0162233 34 21 C33.278125 20.30132812 32.55625 19.60265625 31.8125 18.8828125 C30.884375 17.97273438 29.95625 17.06265625 29 16.125 C28.071875 15.22007812 27.14375 14.31515625 26.1875 13.3828125 C24 11 24 11 24 9 C29.32617006 9.44976547 33.91487869 10.30495956 39 12 C42.08461971 12.50042146 42.08461971 12.50042146 45 12 C47.25065102 10.08333079 47.25065102 10.08333079 49 8 C49.66 8 50.32 8 51 8 C51.66 6.68 52.32 5.36 53 4 C56.35296312 5.45754574 58.55118299 7.30303426 61.12597656 9.88305664 C61.92650452 10.68050797 62.72703247 11.47795929 63.55181885 12.29957581 C64.83327789 13.59181313 64.83327789 13.59181313 66.140625 14.91015625 C67.02280701 15.79279648 67.90498901 16.67543671 68.81390381 17.58482361 C70.67555417 19.44949352 72.53518862 21.31593086 74.39160156 23.18579102 C76.77629496 25.58753544 79.16758046 27.98258229 81.56119156 30.37543583 C83.84047095 32.65505156 86.11549269 34.93890265 88.390625 37.22265625 C89.25302795 38.08617203 90.11543091 38.94968781 91.00396729 39.83937073 C91.7918866 40.63366989 92.57980591 41.42796906 93.39160156 42.24633789 C94.43939789 43.29985191 94.43939789 43.29985191 95.50836182 44.37464905 C97 46 97 46 97 47 C69.28 47 41.56 47 13 47 C14.52573205 43.18566987 15.52746322 41.03447696 18 38 C17.32831787 37.35450195 16.65663574 36.70900391 15.96459961 36.04394531 C13.48154108 33.64603377 11.01008901 31.23730314 8.5456543 28.8203125 C7.47620493 27.77602855 6.40231404 26.73627331 5.32397461 25.70117188 C3.77572131 24.21348071 2.24410864 22.71029773 0.71484375 21.203125 C-0.21207275 20.30239258 -1.13898926 19.40166016 -2.09399414 18.47363281 C-4 16 -4 16 -3.92358398 13.84667969 C-2.62859038 11.25737713 -0.88256152 9.18620048 1 7 C0.34 6.01 -0.32 5.02 -1 4 C-0.625 1.8125 -0.625 1.8125 0 0 Z " fill="#6C943A" transform="translate(47,133)"/>
<path d="M0 0 C0 21.12 0 42.24 0 64 C-31.52922078 65.89935065 -31.52922078 65.89935065 -38.53125 60.66015625 C-42.26128049 57.15334418 -45.2257955 53.29158707 -48 49 C-46.48269448 45.43188055 -44.39063263 43.14279567 -41.65795898 40.41503906 C-40.7604039 39.51440735 -39.86284882 38.61377563 -38.93809509 37.68585205 C-37.95760846 36.71226124 -36.97693697 35.73885657 -35.99609375 34.765625 C-34.99207206 33.76279579 -33.98842016 32.75959623 -32.98512268 31.75604248 C-30.88582091 29.65830228 -28.78320894 27.56395797 -26.67797852 25.47216797 C-23.97356819 22.78480182 -21.27584254 20.09084461 -18.58032131 17.39456558 C-16.51063778 15.32515323 -14.43836418 13.25835158 -12.36519051 11.19243622 C-11.3689867 10.19942322 -10.37339501 9.20579576 -9.37841606 8.21155548 C-7.99234338 6.82763889 -6.60258996 5.4474117 -5.21264648 4.06738281 C-4.42147934 3.28002747 -3.63031219 2.49267212 -2.81517029 1.68145752 C-1 0 -1 0 0 0 Z " fill="#628834" transform="translate(180,116)"/>
<path d="M0 0 C0.495 3.465 0.495 3.465 1 7 C-0.093125 7.433125 -1.18625 7.86625 -2.3125 8.3125 C-6.21725148 9.9411576 -6.21725148 9.9411576 -9 13 C-8.76956136 15.65466049 -8.76956136 15.65466049 -8 18 C-4.29466358 17.63850376 -1.66356716 16.9230249 1.4375 14.9375 C5.06819022 12.74629048 7.72940826 12.45647014 12 13 C16.21258238 14.62022399 18.65613836 16.14985264 21 20 C21.85394393 25.09289081 21.64391123 29.6349082 19.4375 34.3125 C16.54224856 37.50470031 13.55040897 40.53395239 10 43 C9.34 43 8.68 43 8 43 C7.9071875 43.86625 7.9071875 43.86625 7.8125 44.75 C6.67972699 47.88690987 4.65802405 49.09167504 2 51 C1.01 49.35 0.02 47.7 -1 46 C-5.29238623 47.65091778 -7.8793915 50.73754566 -11 54 C-14.63583001 52.46868619 -16.93754143 50.29368674 -19.6953125 47.5 C-20.57574219 46.613125 -21.45617187 45.72625 -22.36328125 44.8125 C-23.73033203 43.4203125 -23.73033203 43.4203125 -25.125 42 C-26.50365234 40.6078125 -26.50365234 40.6078125 -27.91015625 39.1875 C-30.27759809 36.79572323 -32.63917307 34.39830037 -35 32 C-35.66 31.34 -36.32 30.68 -37 30 C-33.11360562 26.03932875 -29.21736879 22.08870561 -25.31176758 18.14697266 C-23.98513539 16.8052743 -22.66121081 15.46089301 -21.34008789 14.11376953 C-19.43825167 12.17545582 -17.5268171 10.24706852 -15.61328125 8.3203125 C-14.73329216 7.41709763 -14.73329216 7.41709763 -13.83552551 6.49563599 C-9.44735524 2.10569077 -6.42644086 0 0 0 Z " fill="#77A043" transform="translate(151,34)"/>
<path d="M0 0 C3.95769636 1.60797932 6.68905756 4.34952654 9.67578125 7.3046875 C10.20519821 7.82507599 10.73461517 8.34546448 11.28007507 8.88162231 C12.39295341 9.98003406 13.50307652 11.08124348 14.6105957 12.18505859 C16.31212681 13.87462943 18.03142393 15.54465115 19.75195312 17.21484375 C20.83187272 18.28530591 21.91068831 19.35688322 22.98828125 20.4296875 C23.50586502 20.92773895 24.02344879 21.42579041 24.55671692 21.93893433 C25.97387695 23.37451172 25.97387695 23.37451172 28 26 C27.72969892 29.73990841 25.81138138 31.55840332 23.23046875 34.12597656 C22.43294189 34.92650452 21.63541504 35.72703247 20.8137207 36.55181885 C19.94706787 37.40612488 19.08041504 38.26043091 18.1875 39.140625 C17.30344482 40.02280701 16.41938965 40.90498901 15.50854492 41.81390381 C13.63897444 43.6767507 11.7668999 45.53654804 9.88964844 47.39160156 C7.47830714 49.77457894 5.07580452 52.16622512 2.67637634 54.56119156 C0.39157614 56.84084914 -1.89790102 59.11578854 -4.1875 61.390625 C-5.05415283 62.25302795 -5.92080566 63.11543091 -6.8137207 64.00396729 C-7.61124756 64.7918866 -8.40877441 65.57980591 -9.23046875 66.39160156 C-10.28850708 67.43939789 -10.28850708 67.43939789 -11.36791992 68.50836182 C-13 70 -13 70 -14 70 C-14.35783944 62.28251485 -14.60127724 54.56719597 -14.76904297 46.84326172 C-14.83903343 44.22200622 -14.93426837 41.60128912 -15.05615234 38.98193359 C-16.09850652 15.98882667 -16.09850652 15.98882667 -10.82128906 9.07128906 C-7.55124735 5.52951304 -3.98820428 2.69327437 0 0 Z " fill="#668D36" transform="translate(14,51)"/>
<path d="M0 0 C3.67352987 0.0314874 5.02497629 0.17654817 8.25 2.125 C11.09585688 5.23765596 12.52393176 7.17127335 12.4375 11.375 C12.25 15.3125 12.25 15.3125 11.25 17.3125 C12.52230469 17.51166016 12.52230469 17.51166016 13.8203125 17.71484375 C17.29063477 18.319581 20.69590618 19.07021267 24.125 19.875 C25.27742188 20.14441406 26.42984375 20.41382813 27.6171875 20.69140625 C28.48601562 20.89636719 29.35484375 21.10132813 30.25 21.3125 C28.96874384 24.17068682 27.78259989 26.41305008 25.25 28.3125 C18.23038366 28.91492976 10.88975645 26.31957467 4.25 24.3125 C9.56429814 30.48502553 9.56429814 30.48502553 15.25 36.3125 C14.09826645 38.78050047 13.20216435 40.36033565 11.25 42.3125 C7.52243327 42.2552084 5.53837276 39.92332003 3.03646851 37.38755798 C2.51654327 36.84587479 1.99661804 36.30419159 1.4609375 35.74609375 C0.91643951 35.19260757 0.37194153 34.6391214 -0.1890564 34.06886292 C-1.92502 32.30290127 -3.65072846 30.5273741 -5.375 28.75 C-7.107281 26.96997331 -8.84169238 25.19224652 -10.58236694 23.42042542 C-11.66482543 22.31812678 -12.74231212 21.21092013 -13.81436157 20.09849548 C-15.0886243 18.79852531 -16.41502231 17.5500389 -17.75 16.3125 C-18.41 16.3125 -19.07 16.3125 -19.75 16.3125 C-19.17415568 18.69814077 -18.52772405 20.97932784 -17.75 23.3125 C-18.595625 24.055 -19.44125 24.7975 -20.3125 25.5625 C-22.9736683 27.93243182 -22.9736683 27.93243182 -22.69555664 30.17285156 C-21.36390727 33.18616814 -19.40596523 34.99167187 -17.05859375 37.296875 C-16.36154076 37.98756073 -16.36154076 37.98756073 -15.65040588 38.69219971 C-14.16968181 40.15617811 -12.67885481 41.60936041 -11.1875 43.0625 C-10.17965336 44.05529449 -9.17248367 45.0487767 -8.16601562 46.04296875 C-5.70180539 48.47416473 -3.22842671 50.89578868 -0.75 53.3125 C-3.225 56.2825 -3.225 56.2825 -5.75 59.3125 C-9.41752005 57.7733199 -11.73580573 55.55764548 -14.515625 52.7421875 C-15.84980469 51.39833984 -15.84980469 51.39833984 -17.2109375 50.02734375 C-18.13132812 49.09019531 -19.05171875 48.15304688 -20 47.1875 C-20.94484856 46.23261363 -21.89015633 45.27818141 -22.8359375 44.32421875 C-25.14518338 41.99140913 -27.44963203 39.65405914 -29.75 37.3125 C-32.6105891 38.67187085 -34.60927699 39.95770469 -36.75 42.3125 C-39.65542812 41.0100667 -41.5592961 39.60363732 -43.75 37.3125 C-39.14894249 32.66065171 -34.53999821 28.0167263 -29.92553711 23.37817383 C-28.35731082 21.79990208 -26.79088583 20.21983833 -25.22631836 18.63793945 C-22.97462786 16.36193728 -20.71649702 14.09249911 -18.45703125 11.82421875 C-17.76100296 11.11786789 -17.06497467 10.41151703 -16.34785461 9.6837616 C-13.01357883 6.34872301 -9.9661502 3.52717845 -5.75 1.3125 C-4.10962605 -0.32787395 -2.25523159 0.06338669 0 0 Z " fill="#F5F7F0" transform="translate(66.75,117.6875)"/>
<path d="M0 0 C3.63583001 1.53131381 5.93754143 3.70631326 8.6953125 6.5 C9.57574219 7.386875 10.45617188 8.27375 11.36328125 9.1875 C12.27464844 10.115625 13.18601563 11.04375 14.125 12 C15.04410156 12.928125 15.96320312 13.85625 16.91015625 14.8125 C19.27759809 17.20427677 21.63917307 19.60169963 24 22 C24.66 22.66 25.32 23.32 26 24 C25.67 24.66 25.34 25.32 25 26 C5.2 26 -14.6 26 -35 26 C-32.10470315 20.20940631 -27.65963692 16.25075664 -23.125 11.6875 C-22.21363281 10.74326172 -21.30226563 9.79902344 -20.36328125 8.82617188 C-19.04263672 7.49489258 -19.04263672 7.49489258 -17.6953125 6.13671875 C-16.89109863 5.31905029 -16.08688477 4.50138184 -15.25830078 3.65893555 C-13 2 -13 2 -10.84716797 2.17504883 C-8.8635357 3.0609454 -6.91530002 3.97394642 -5 5 C-3.35 3.35 -1.7 1.7 0 0 Z " fill="#85A642" transform="translate(35,154)"/>
<path d="M0 0 C0 3 0 3 -1.10095215 4.4617157 C-1.61613403 4.97023575 -2.13131592 5.4787558 -2.66210938 6.00268555 C-3.24271118 6.58306076 -3.82331299 7.16343597 -4.42150879 7.76139832 C-5.05584839 8.38025406 -5.69018799 8.9991098 -6.34375 9.63671875 C-7.30927795 10.59587944 -7.30927795 10.59587944 -8.29431152 11.57441711 C-10.35595596 13.61924143 -12.42777661 15.65340245 -14.5 17.6875 C-15.89781717 19.07027471 -17.29496153 20.45372991 -18.69140625 21.83789062 C-22.11984101 25.23321183 -25.55743964 28.61900414 -29 32 C-27.41219641 35.86466333 -24.94066771 38.30059155 -21.99951172 41.22753906 C-21.492034 41.73530884 -20.98455627 42.24307861 -20.46170044 42.76623535 C-18.78906131 44.43748509 -17.10945783 46.10154556 -15.4296875 47.765625 C-14.26625722 48.92532377 -13.10326874 50.08546592 -11.94070435 51.24603271 C-8.884018 54.29509352 -5.82137256 57.33809963 -2.75744629 60.37988281 C0.36975165 63.48659913 3.49127507 66.59900545 6.61328125 69.7109375 C12.7366488 75.81287417 18.8663236 81.90842598 25 88 C25.86625 87.505 25.86625 87.505 26.75 87 C29 86 29 86 33 86 C35.25440092 87.90531786 37.25615809 89.79161236 39.296875 91.90625 C39.89050842 92.50554321 40.48414185 93.10483643 41.09576416 93.72229004 C42.99009491 95.63901565 44.87005098 97.56917669 46.75 99.5 C48.03162945 100.8016903 49.31417096 102.10248329 50.59765625 103.40234375 C53.7424496 106.59124578 56.87442037 109.79226806 60 113 C58.64062915 115.8605891 57.35479531 117.85927699 55 120 C50.97564114 118.39252639 48.29291566 115.54841304 45.31640625 112.51171875 C44.77902328 111.97150589 44.24164032 111.43129303 43.68797302 110.87471008 C41.97471454 109.15029294 40.26853224 107.41906371 38.5625 105.6875 C37.41908438 104.53404448 36.27520875 103.38104477 35.13085938 102.22851562 C33.01739279 100.09876287 30.90668926 97.96635165 28.79907227 95.83081055 C26.20866192 93.21102791 23.60610319 90.60415892 21 88 C3.66666667 70.66666667 -13.66666667 53.33333333 -31 36 C-34.998021 37.83209246 -37.67761082 40.48355275 -40.6875 43.625 C-42.43980459 45.43851058 -44.20610427 47.22686009 -46 49 C-46.33 49 -46.66 49 -47 49 C-47 38.44 -47 27.88 -47 17 C-39.125 23.75 -39.125 23.75 -35.5625 27.375 C-34.88316406 28.06335938 -34.20382813 28.75171875 -33.50390625 29.4609375 C-33.00761719 29.96882813 -32.51132812 30.47671875 -32 31 C-24.88094773 25.19316781 -18.52625188 18.63714556 -12.0625 12.125 C-10.89020796 10.94768362 -9.71768386 9.77059826 -8.54492188 8.59375 C-5.69393018 5.73182511 -2.84610385 2.86678543 0 0 Z " fill="#ABBF92" transform="translate(47,16)"/>
<path d="M0 0 C3.18717603 0.72518364 5.5689583 1.7111812 8.4440918 3.24291992 C9.8971875 4.00958984 9.8971875 4.00958984 11.37963867 4.79174805 C12.37672852 5.32864258 13.37381836 5.86553711 14.40112305 6.41870117 C15.37887695 6.93625977 16.35663086 7.45381836 17.36401367 7.98706055 C24.00988961 11.51425049 30.61492614 15.11668504 37.21362305 18.73120117 C35.56362305 20.71120117 33.91362305 22.69120117 32.21362305 24.73120117 C28.40727735 24.05949311 24.86155488 23.00373553 21.21362305 21.73120117 C19.01378324 23.58671823 16.97469694 25.44772921 15.21362305 27.73120117 C15.21362305 31.35453854 16.18358369 32.68614214 18.21362305 35.73120117 C18.15112305 37.66870117 18.15112305 37.66870117 17.21362305 39.73120117 C15.57292482 41.09636229 13.90769453 42.43286479 12.21362305 43.73120117 C9.33314551 38.30700338 6.46957173 32.87440888 3.62573242 27.4309082 C2.70049087 25.66200761 1.77221416 23.89469051 0.84057617 22.12915039 C-0.44323793 19.69018637 -1.71053222 17.24331724 -2.97387695 14.79370117 C-3.3721167 14.04362793 -3.77035645 13.29355469 -4.18066406 12.52075195 C-6.86790696 7.25257202 -6.86790696 7.25257202 -6.45556641 4.61572266 C-5.15163219 0.94368025 -4.00801431 -0.38664889 0 0 Z " fill="#FBFCFA" transform="translate(97.786376953125,83.268798828125)"/>
<path d="M0 0 C0.33 2.31 0.66 4.62 1 7 C-0.093125 7.433125 -1.18625 7.86625 -2.3125 8.3125 C-6.21725148 9.9411576 -6.21725148 9.9411576 -9 13 C-8.76956136 15.65466049 -8.76956136 15.65466049 -8 18 C-4.29466358 17.63850376 -1.66356716 16.9230249 1.4375 14.9375 C5.06819022 12.74629048 7.72940826 12.45647014 12 13 C16.21258238 14.62022399 18.65613836 16.14985264 21 20 C21.85394393 25.09289081 21.64391123 29.6349082 19.4375 34.3125 C15.51966231 38.6321672 11.45164925 42.71739889 6 45 C3.75 44.625 3.75 44.625 2 44 C1.67 42.02 1.34 40.04 1 38 C1.81404297 37.61908203 1.81404297 37.61908203 2.64453125 37.23046875 C3.35996094 36.88628906 4.07539063 36.54210937 4.8125 36.1875 C5.52019531 35.85105469 6.22789062 35.51460937 6.95703125 35.16796875 C9.05941484 33.96603244 10.48308415 32.88551222 12 31 C12.33361919 27.91608998 12.33361919 27.91608998 12 25 C11.67 24.67 11.34 24.34 11 24 C6.71445689 24.26238019 3.71403319 25.014457 -0.0625 27.0625 C-3.60847484 28.91049843 -5.94642568 29.86246262 -10 29 C-13.65265445 27.00009622 -16.4026819 24.81101764 -17.734375 20.7734375 C-18.34545672 16.42311763 -18.39630902 12.79415594 -16 9 C-11.27802396 3.45258856 -7.55787144 0 0 0 Z " fill="#F9FBF7" transform="translate(151,34)"/>
<path d="M0 0 C2.99955226 3.62736553 4.94416663 7.63313236 7.01171875 11.828125 C7.57135063 12.95163361 7.57135063 12.95163361 8.14228821 14.09783936 C9.32780834 16.48003461 10.50772118 18.86495701 11.6875 21.25 C12.49246961 22.86997504 13.29780411 24.48976883 14.10351562 26.109375 C16.07324364 30.07082933 18.03794893 34.03473816 20 38 C20.66 38 21.32 38 22 38 C20.44499019 41.81684226 17.96404505 44.19195732 15 47 C16.58431453 50.90851199 19.26635095 53.52367356 22.2265625 56.421875 C22.98808121 57.17914886 22.98808121 57.17914886 23.76498413 57.95172119 C25.38033842 59.55592096 27.00252209 61.15300856 28.625 62.75 C29.72441698 63.83938107 30.82338059 64.9292199 31.921875 66.01953125 C34.6093602 68.68501885 37.30299021 71.34415143 40 74 C45.8797505 69.12275563 51.26880817 63.86113122 56.65234375 58.4453125 C58.00254356 57.09299026 58.00254356 57.09299026 59.38002014 55.71334839 C61.75072823 53.33801783 64.11924515 50.96054595 66.48669434 48.58197021 C68.91180728 46.14655283 71.33982085 43.71403088 73.76757812 41.28125 C78.51437128 36.52347231 83.25829281 31.7628462 88 27 C88.66 27.33 89.32 27.66 90 28 C74.49 43.51 58.98 59.02 43 75 C44.60407902 78.20815804 45.41713934 79.66358318 47.8203125 82.015625 C48.35527344 82.54414063 48.89023438 83.07265625 49.44140625 83.6171875 C49.99699219 84.15601563 50.55257812 84.69484375 51.125 85.25 C51.68832031 85.80429688 52.25164062 86.35859375 52.83203125 86.9296875 C54.21686028 88.29104485 55.60783204 89.64614859 57 91 C55.515 91.495 55.515 91.495 54 92 C39.81 77.81 25.62 63.62 11 49 C13.475 46.03 13.475 46.03 16 43 C14.36221955 38.80374091 11.26676818 36.01323215 8.1171875 32.921875 C7.54292023 32.35043762 6.96865295 31.77900024 6.37698364 31.19024658 C4.5476419 29.37207055 2.71145807 27.56098508 0.875 25.75 C-0.36894774 24.51608671 -1.6124427 23.28171678 -2.85546875 22.046875 C-5.89842367 19.02593257 -8.94753254 16.01132908 -12 13 C-8.16171005 8.46548035 -4.25222428 4.15098084 0 0 Z " fill="#7EA446" transform="translate(90,88)"/>
<path d="M0 0 C3.97163095 1.59451456 6.60541421 4.36558109 9.53515625 7.375 C10.05508652 7.90013184 10.57501678 8.42526367 11.11070251 8.96630859 C12.76614218 10.63950892 14.41472431 12.31925435 16.0625 14 C17.7147001 15.67986104 19.36835341 17.35822399 21.02500916 19.03369141 C22.05398384 20.07487621 23.08027353 21.11872311 24.10353088 22.16552734 C26.31488945 24.40778751 28.36627497 26.24418331 31 28 C30.34 28 29.68 28 29 28 C28.61714844 28.87398437 28.61714844 28.87398437 28.2265625 29.765625 C26.88258913 32.21388223 25.38189704 33.81743248 23.375 35.75 C22.74335937 36.36359375 22.11171875 36.9771875 21.4609375 37.609375 C20.73777344 38.29773438 20.73777344 38.29773438 20 39 C14.44090325 34.34277799 9.17577315 29.45378251 4 24.375 C3.21238281 23.62476563 2.42476562 22.87453125 1.61328125 22.1015625 C0.87464844 21.37453125 0.13601562 20.6475 -0.625 19.8984375 C-1.29789063 19.24536621 -1.97078125 18.59229492 -2.6640625 17.91943359 C-4 16 -4 16 -3.83984375 13.92822266 C-2.66625354 11.23374142 -0.90758806 9.21526355 1 7 C0.34 6.01 -0.32 5.02 -1 4 C-0.625 1.8125 -0.625 1.8125 0 0 Z " fill="#81A541" transform="translate(47,133)"/>
<path d="M0 0 C1.9375 0.8125 1.9375 0.8125 4 2 C4.33 2.99 4.66 3.98 5 5 C4.154375 5.7425 3.30875 6.485 2.4375 7.25 C-0.2236683 9.61993182 -0.2236683 9.61993182 0.05444336 11.86035156 C1.38609273 14.87366814 3.34403477 16.67917187 5.69140625 18.984375 C6.38845924 19.67506073 6.38845924 19.67506073 7.09959412 20.37969971 C8.58031819 21.84367811 10.07114519 23.29686041 11.5625 24.75 C12.57034664 25.74279449 13.57751633 26.7362767 14.58398438 27.73046875 C17.04819461 30.16166473 19.52157329 32.58328868 22 35 C19.525 37.97 19.525 37.97 17 41 C13.33247995 39.4608199 11.01419427 37.24514548 8.234375 34.4296875 C6.90019531 33.08583984 6.90019531 33.08583984 5.5390625 31.71484375 C4.61867188 30.77769531 3.69828125 29.84054688 2.75 28.875 C1.80515144 27.92011363 0.85984367 26.96568141 -0.0859375 26.01171875 C-2.39518338 23.67890913 -4.69963203 21.34155914 -7 19 C-9.8605891 20.35937085 -11.85927699 21.64520469 -14 24 C-15.32 23.34 -16.64 22.68 -18 22 C-18 18 -18 18 -16.34765625 15.89355469 C-15.59355469 15.16040039 -14.83945312 14.42724609 -14.0625 13.671875 C-13.25039063 12.87265625 -12.43828125 12.0734375 -11.6015625 11.25 C-10.74304687 10.425 -9.88453125 9.6 -9 8.75 C-8.14148437 7.90953125 -7.28296875 7.0690625 -6.3984375 6.203125 C-4.27429428 4.12618496 -2.14139163 2.05912777 0 0 Z " fill="#FBFCF9" transform="translate(44,136)"/>
<path d="M0 0 C4.12351076 0.18596878 6.2226075 2.87911862 8.984375 5.69140625 C9.67506073 6.38845924 9.67506073 6.38845924 10.37969971 7.09959412 C11.84367811 8.58031819 13.29686041 10.07114519 14.75 11.5625 C15.74279449 12.57034664 16.7362767 13.57751633 17.73046875 14.58398438 C20.16166473 17.04819461 22.58328868 19.52157329 25 22 C27.9409769 20.59321502 29.98948284 19.23826794 32.25 16.875 C33.1575 15.92625 34.065 14.9775 35 14 C35.99 14.33 36.98 14.66 38 15 C38.66 16.65 39.32 18.3 40 20 C35.38 24.62 30.76 29.24 26 34 C21.8274869 31.91374345 19.13262639 29.38841113 15.921875 26.1171875 C15.35043762 25.54292023 14.77900024 24.96865295 14.19024658 24.37698364 C12.37207055 22.5476419 10.56098508 20.71145807 8.75 18.875 C7.51608671 17.63105226 6.28171678 16.3875573 5.046875 15.14453125 C2.02593257 12.10157633 -0.98867092 9.05246746 -4 6 C-2.84826645 3.53199953 -1.95216435 1.95216435 0 0 Z " fill="#FAFBF8" transform="translate(113,65)"/>
<path d="M0 0 C4.19625909 1.63778045 6.98676785 4.73323182 10.078125 7.8828125 C10.64956238 8.45707977 11.22099976 9.03134705 11.80975342 9.62301636 C13.62792945 11.4523581 15.43901492 13.28854193 17.25 15.125 C18.48391329 16.36894774 19.71828322 17.6124427 20.953125 18.85546875 C23.97406743 21.89842367 26.98867092 24.94753254 30 28 C28.64062915 30.8605891 27.35479531 32.85927699 25 35 C20.82791008 33.36033597 18.01878371 30.30728471 14.921875 27.1875 C14.35043762 26.61797607 13.77900024 26.04845215 13.19024658 25.46166992 C11.98765211 24.2604332 10.78756666 23.05668003 9.58984375 21.85058594 C7.74959283 19.99959045 5.89887367 18.15954554 4.046875 16.3203125 C2.87956616 15.15168276 1.71287749 13.98243316 0.546875 12.8125 C-0.00929504 12.26037842 -0.56546509 11.70825684 -1.13848877 11.1394043 C-5 7.22993635 -5 7.22993635 -5 5 C-4.34 5 -3.68 5 -3 5 C-2.5359375 4.0409375 -2.5359375 4.0409375 -2.0625 3.0625 C-1 1 -1 1 0 0 Z " fill="#F7FAF4" transform="translate(77,101)"/>
<path d="M0 0 C0.99 0.495 0.99 0.495 2 1 C-13.51 16.51 -29.02 32.02 -45 48 C-43.39592098 51.20815804 -42.58286066 52.66358318 -40.1796875 55.015625 C-39.64472656 55.54414063 -39.10976562 56.07265625 -38.55859375 56.6171875 C-38.00300781 57.15601563 -37.44742188 57.69484375 -36.875 58.25 C-36.31167969 58.80429688 -35.74835938 59.35859375 -35.16796875 59.9296875 C-33.78313972 61.29104485 -32.39216796 62.64614859 -31 64 C-31.99 64.33 -32.98 64.66 -34 65 C-48.19 50.81 -62.38 36.62 -77 22 C-76.34 21.34 -75.68 20.68 -75 20 C-66.09 28.91 -57.18 37.82 -48 47 C-42.06022119 41.91115603 -42.06022119 41.91115603 -36.44165039 36.55517578 C-35.62132828 35.73477814 -34.80100616 34.91438049 -33.95582581 34.06912231 C-32.66478188 32.77033646 -32.66478188 32.77033646 -31.34765625 31.4453125 C-30.44752304 30.54376434 -29.54738983 29.64221619 -28.61997986 28.71334839 C-26.24927177 26.33801783 -23.88075485 23.96054595 -21.51330566 21.58197021 C-19.08819272 19.14655283 -16.66017915 16.71403088 -14.23242188 14.28125 C-9.48562872 9.52347231 -4.74170719 4.7628462 0 0 Z " fill="#A1B985" transform="translate(178,115)"/>
<path d="M0 0 C10.07317073 8.63414634 10.07317073 8.63414634 13 12 C13 15.22269311 11.67966796 16.36290782 9.53125 18.796875 C8.52849161 19.78905019 7.51777936 20.77323946 6.5 21.75 C5.98824219 22.25660156 5.47648438 22.76320313 4.94921875 23.28515625 C1.15427055 27 1.15427055 27 0 27 C0 18.09 0 9.18 0 0 Z " fill="#658B37" transform="translate(0,36)"/>
<path d="M0 0 C0.886875 0.309375 1.77375 0.61875 2.6875 0.9375 C5.88251165 2.04393171 5.88251165 2.04393171 8.8125 2.5 C9.8953125 2.7475 9.8953125 2.7475 11 3 C11.33 3.66 11.66 4.32 12 5 C11.01 5 10.02 5 9 5 C8.7525 5.57621094 8.505 6.15242188 8.25 6.74609375 C6.81305755 9.3370806 5.14041667 11.02044807 3 13.0625 C0.62557202 15.33653856 -1.16347952 17.24521929 -3 20 C-3.66 19.67 -4.32 19.34 -5 19 C-4.773125 18.443125 -4.54625 17.88625 -4.3125 17.3125 C-3.73482997 14.85196029 -3.73482997 14.85196029 -5.5 12.5 C-7 10 -7 10 -6.78515625 8.046875 C-5.87239776 5.6673454 -4.78954382 4.48382825 -2.9375 2.75 C-2.38964844 2.22921875 -1.84179688 1.7084375 -1.27734375 1.171875 C-0.64505859 0.59179688 -0.64505859 0.59179688 0 0 Z " fill="#7DA347" transform="translate(119,104)"/>
<path d="M0 0 C6.95660771 0.57021375 13.31427305 2.01302694 20 4 C18.28032649 7.02990095 16.70761694 9.76327296 14 12 C13.34 12 12.68 12 12 12 C11.67 12.66 11.34 13.32 11 14 C10.54109375 13.46890625 10.0821875 12.9378125 9.609375 12.390625 C5.70720627 7.8947499 5.70720627 7.8947499 1.5625 3.625 C0 2 0 2 0 0 Z " fill="#81A545" transform="translate(71,142)"/>
<path d="M0 0 C1.875 1.125 1.875 1.125 3 3 C2.86138651 6.32672378 2.58989219 8.29212937 0.4375 10.875 C-0.2740625 11.431875 -0.2740625 11.431875 -1 12 C-4.35915158 10.56036361 -6.71624938 8.87583411 -9 6 C-8.9375 3.875 -8.9375 3.875 -8 2 C-4.76746204 -0.15502531 -3.74849077 -0.46856135 0 0 Z " fill="#82A646" transform="translate(68,126)"/>
<path d="M0 0 C4.07044677 1.61604623 6.78165668 4.52663529 9.7890625 7.59375 C10.33356049 8.14107788 10.87805847 8.68840576 11.4390564 9.25231934 C13.17246993 10.99689371 14.89879457 12.748296 16.625 14.5 C17.79380782 15.67884467 18.9630738 16.85723527 20.1328125 18.03515625 C22.27189368 20.1905616 24.40841581 22.34842908 26.54150391 24.50976562 C28.0233725 26.0107646 29.50853554 27.50853554 31 29 C30.34 29 29.68 29 29 29 C28.67 29.66 28.34 30.32 28 31 C27.62157959 30.54866699 27.24315918 30.09733398 26.85327148 29.63232422 C21.13504571 22.94503517 14.87527882 16.82863287 8.58764648 10.68359375 C7.17005197 9.29600999 5.75874095 7.90201582 4.34765625 6.5078125 C3.51242432 5.68941895 2.67719238 4.87102539 1.81665039 4.02783203 C0 2 0 2 0 0 Z " fill="#ABC385" transform="translate(43,77)"/>
<path d="M0 0 C6.36590304 5.24458586 12.13570612 11.02097322 17.9375 16.875 C18.91708237 17.85960919 19.89689837 18.843986 20.87695312 19.828125 C23.25360252 22.21648203 25.62787356 24.60715212 28 27 C27.34 27.66 26.68 28.32 26 29 C17.09 20.09 8.18 11.18 -1 2 C-0.67 1.34 -0.34 0.68 0 0 Z " fill="#9BB47E" transform="translate(16,49)"/>
<path d="M0 0 C3.63 1.98 7.26 3.96 11 6 C11 7.32 11 8.64 11 10 C9 11.75 9 11.75 7 13 C5.82786955 11.21190303 4.66244474 9.41940875 3.5 7.625 C2.8503125 6.62726563 2.200625 5.62953125 1.53125 4.6015625 C0 2 0 2 0 0 Z " fill="#86AA53" transform="translate(101,93)"/>
<path d="M0 0 C5.29012124 4.40843437 10.18808428 9.07559794 15 14 C14.67 14.99 14.34 15.98 14 17 C12.90169097 15.90169097 11.80449544 14.8022584 10.7109375 13.69921875 C9.37680586 12.374225 8.02397901 11.06804685 6.6640625 9.76953125 C5.84679687 8.97933594 5.02953125 8.18914063 4.1875 7.375 C3.00220703 6.24191406 3.00220703 6.24191406 1.79296875 5.0859375 C0 3 0 3 0 0 Z " fill="#9AB37C" transform="translate(0,33)"/>
<path d="M0 0 C0.99 0.33 1.98 0.66 3 1 C1.02 3.31 -0.96 5.62 -3 8 C-3.66 7.67 -4.32 7.34 -5 7 C-5 6.34 -5 5.68 -5 5 C-4.34 5 -3.68 5 -3 5 C-2.5359375 4.0409375 -2.5359375 4.0409375 -2.0625 3.0625 C-1 1 -1 1 0 0 Z " fill="#E5ECD9" transform="translate(77,101)"/>
<path d="M0 0 C1.32 0.33 2.64 0.66 4 1 C1.36 2.98 -1.28 4.96 -4 7 C-2.73033708 1.92134831 -2.73033708 1.92134831 0 0 Z " fill="#DFE9D2" transform="translate(95,83)"/>
<path d="M0 0 C0.99 0.33 1.98 0.66 3 1 C1.35 2.98 -0.3 4.96 -2 7 C-2.66 6.67 -3.32 6.34 -4 6 C-2.84826645 3.53199953 -1.95216435 1.95216435 0 0 Z " fill="#E4ECDA" transform="translate(113,65)"/>
</svg>
